<svg width="83" height="92" viewBox="0 0 83 92" fill="none" xmlns="http://www.w3.org/2000/svg">
<path d="M35.739 37.961C34.0512 36.6549 32.5791 35.2042 31.3926 33.4832C30.691 32.4645 30.6848 31.4528 31.2786 30.3778C31.9648 29.135 32.9674 28.2097 34.194 27.3708C34.0471 27.7747 33.9105 28.0992 33.8149 28.4338C33.741 28.693 33.703 28.9662 33.6814 29.2355C33.6536 29.5801 33.7379 29.9146 33.3208 30.1608C33.1338 30.2713 33.064 30.6591 33.0414 30.9294C32.9438 32.0596 33.3003 33.0552 33.967 33.9865C34.8165 35.1731 35.8089 36.1918 37.1248 36.876C37.4813 37.0608 37.8634 37.2186 38.2343 37.0819C37.6333 36.455 37.0293 35.8241 36.4242 35.1942C36.4478 35.159 36.4715 35.1238 36.4951 35.0887C37.1936 35.0716 37.8552 34.9169 38.5856 35.2615C39.4054 35.6483 40.331 35.9235 41.235 36.0089C41.9541 36.0762 42.7091 35.7929 43.4446 35.6463C43.6624 35.6031 43.8894 35.5297 44.0723 35.4112C44.8119 34.9319 45.6091 34.936 46.5224 35.1319C45.9009 35.798 45.4602 36.5796 44.5551 37.0236C45.0225 37.2155 45.3852 37.09 45.718 36.9252C47.0247 36.2792 48.0201 35.2936 48.8687 34.1413C49.5559 33.2089 49.9874 32.2093 49.9124 31.0379C49.8846 30.5998 49.8456 30.1799 49.3659 29.9579C49.3083 29.9307 49.2621 29.8102 49.2662 29.7348C49.3125 28.9291 49.1255 28.1746 48.7413 27.4603L48.8224 27.3889C49.3001 27.7828 49.7984 28.1555 50.2524 28.5744C50.9828 29.2476 51.5365 30.0372 51.9156 30.9605C52.232 31.7311 52.1221 32.4153 51.7512 33.1195C51.1205 34.3141 50.1661 35.2534 49.2251 36.1968C48.6016 36.8207 47.9123 37.3823 47.187 38.0303C47.7828 37.8264 48.3519 37.6958 48.8584 37.4456C50.5801 36.5926 52.2823 35.6985 53.9886 34.8144C54.4447 34.5783 54.8988 34.3874 55.4155 34.6336C55.4628 34.6557 55.5152 34.6768 55.5665 34.6808C56.6462 34.7792 57.2954 35.4423 57.9241 36.241C59.2175 37.8836 60.5252 39.5092 61.5843 41.3136C62.0805 42.1585 62.4308 42.9632 62.2428 44.0111C61.948 45.6577 62.2253 47.3164 62.4965 48.955C63.0205 52.1227 64.0601 55.1608 64.9507 58.2371C65.4346 59.9058 65.9616 61.5686 66.3242 63.2634C66.7731 65.3642 66.4629 67.4197 65.4808 69.3487C63.8443 72.5626 61.2741 74.8954 58.1368 76.6747C54.5927 78.684 50.7753 79.8906 46.7032 80.3035C45.0308 80.4733 43.3532 80.626 41.6736 80.6783C40.595 80.7124 39.5061 80.5808 38.4274 80.4663C36.6923 80.2824 34.9388 80.1609 33.2335 79.8213C29.0484 78.9874 25.2053 77.3498 21.878 74.6945C19.7361 72.9855 17.9846 70.9401 17.0282 68.3631C16.3512 66.5396 16.192 64.6479 16.7313 62.748C17.6065 59.6677 18.5044 56.5935 19.3858 53.5142C20.0689 51.1281 20.6195 48.7129 20.7603 46.2324C20.8116 45.3332 20.7284 44.423 20.6442 43.5228C20.6021 43.0677 20.6216 42.6658 20.8404 42.2519C21.9067 40.2255 23.2483 38.385 24.7204 36.6278C25.0985 36.1767 25.4549 35.7095 25.8484 35.2715C25.9768 35.1278 26.1751 35.0214 26.362 34.9571C26.7236 34.8345 27.1171 34.7923 27.4663 34.6466C28.0509 34.4035 28.5429 34.5693 29.0329 34.8696C30.9098 36.023 32.8842 36.9875 34.949 37.7741C35.1453 37.8485 35.3548 37.8907 35.5592 37.9449C35.6075 37.958 35.6609 37.955 35.7359 37.962L35.739 37.961ZM26.36 45.6256L26.3137 45.5432C25.8463 45.935 25.2926 46.2625 24.93 46.7317C23.9983 47.9373 23.1107 49.1791 22.2806 50.454C20.8312 52.6823 20.071 55.2 19.1957 57.6725C18.5075 59.6165 18.492 61.5555 18.7992 63.5608C19.283 66.7205 20.6637 69.3959 23.0511 71.568C24.7636 73.1252 26.7072 74.3479 28.8408 75.2782C32.2452 76.7641 35.8294 77.5035 39.541 77.6803C44.2521 77.9044 48.8471 77.3679 53.2541 75.6349C55.6107 74.7076 57.7557 73.4387 59.651 71.785C62.1709 69.5868 63.6872 66.8541 64.1238 63.5688C64.3035 62.2136 64.5901 60.8563 64.2255 59.4879C63.3759 56.2981 62.3548 53.1696 60.5951 50.3264C59.7938 49.0314 59.0264 47.7052 57.921 46.6222C57.5235 46.2324 57.0561 45.9099 56.6205 45.5562C56.5948 45.5844 56.5681 45.6125 56.5424 45.6406C56.5835 45.7331 56.6318 45.8245 56.6647 45.9189C56.8414 46.4193 57.0468 46.9135 57.1773 47.4249C57.2811 47.8288 57.0232 48.079 56.6904 47.9865C55.85 47.7555 55.0149 47.5013 54.1653 47.3094C50.3243 46.4434 46.4515 46.143 42.5304 46.7146C42.0013 46.792 41.4538 46.8271 40.9216 46.788C39.6684 46.6975 38.4212 46.4735 37.168 46.4403C33.4441 46.3429 29.8024 46.8734 26.2531 47.9875C26.0035 48.0659 25.8525 47.9745 25.7929 47.7665C25.7487 47.6138 25.7446 47.4269 25.7919 47.2752C25.9655 46.7196 26.1668 46.1731 26.3589 45.6236L26.36 45.6256ZM82.5613 60.0003C82.5675 59.9229 82.5757 59.8456 82.5747 59.7692C82.5449 57.4715 81.8073 55.411 80.4821 53.5182C79.835 52.5929 79.2956 51.5933 78.7327 50.6137C78.6166 50.4118 78.6094 50.1496 78.5509 49.9155C78.6906 49.9175 78.7347 49.9446 78.7707 49.9798C79.7035 50.8769 80.6568 51.756 81.5608 52.6793C82.0734 53.2037 82.5079 53.8015 82.999 54.3923C82.8962 53.8266 82.8469 53.2439 82.6815 52.6954C82.2182 51.1633 81.3985 49.81 80.4472 48.518C79.7672 47.5947 79.1508 46.6262 78.5221 45.6678C78.37 45.4367 78.2807 45.1664 78.18 44.9524C79.1559 45.5653 80.1401 46.1611 81.0954 46.796C81.4293 47.018 81.7025 47.3305 81.9912 47.6148C82.1299 47.7514 82.2419 47.9152 82.3621 48.0699C82.472 48.2106 82.5757 48.3562 82.7493 48.5903C81.9388 45.6396 80.2798 43.354 78.0424 41.4612C76.1809 39.8869 74.2568 38.3819 72.3625 36.8448C72.1714 36.6901 71.9906 36.5243 71.8047 36.3646C71.7759 36.3797 71.7472 36.3937 71.7174 36.4088C71.8191 36.7373 71.9023 37.0719 72.0256 37.3924C72.4355 38.4643 73.1402 39.3575 73.8736 40.2295C74.5578 41.0433 75.0088 41.9736 75.3201 42.9733C75.3653 43.1179 75.3601 43.2777 75.3735 43.3872C74.8352 43.0305 74.3267 42.6759 73.8007 42.3484C73.021 41.8631 72.2238 41.403 71.4441 40.9167C71.2109 40.771 71.0096 40.5761 70.7939 40.4033C71.0271 41.0664 71.2603 41.7235 71.6342 42.2931C72.304 43.3158 73.0272 44.3095 73.7874 45.2699C74.5845 46.2766 75.242 47.3375 75.5286 48.5903C75.5769 48.8023 75.5789 49.0253 75.6015 49.2434C75.4505 49.1921 75.3868 49.1298 75.3396 49.0575C74.717 48.1021 73.8921 47.3496 72.9429 46.7096C72.1376 46.1661 71.3527 45.5924 70.5597 45.0318C70.496 44.9866 70.4323 44.9394 70.3686 44.8932C70.5114 45.3071 70.6768 45.6889 70.9058 46.0304C71.2469 46.5378 71.5982 47.0462 72.005 47.5033C73.2028 48.8485 74.1695 50.3153 74.6544 52.0534C74.714 52.2684 74.751 52.4904 74.7931 52.6853C73.3015 51.3853 71.4092 50.4891 70.5227 48.5933C70.6141 48.9661 70.7404 49.3157 70.8791 49.6593C71.5191 51.2416 72.3163 52.7436 73.2501 54.1793C73.7473 54.9448 74.1315 55.7646 74.3123 56.715C73.0765 55.6953 72.1745 54.4887 71.4791 53.1214C71.4493 53.1917 71.44 53.2439 71.4513 53.2922C71.9342 55.3949 72.6255 57.4384 73.5326 59.3945C74.2907 61.0291 75.2286 62.5843 76.072 64.1817C76.9319 65.8113 77.6684 67.4901 77.8163 69.3447C77.8615 69.9143 77.7629 70.495 77.7229 71.1862C78.9515 68.2757 79.3347 65.3672 78.8631 62.2387C79.5555 63.2433 80.2274 64.1385 80.3886 65.2949C80.4513 65.2155 80.4832 65.1462 80.5047 65.0738C80.9454 63.5477 80.7985 62.0629 80.2561 60.578C79.8483 59.4608 79.4949 58.3195 79.1991 57.1691C79.0532 56.6025 79.0922 55.9897 79.046 55.3738C79.6182 56.1605 80.1267 56.8959 80.6732 57.6022C81.2927 58.4029 81.947 59.1775 82.5932 59.9732C82.5439 60.0184 82.5593 60.0103 82.5603 60.0023L82.5613 60.0003ZM7.59364 43.4053C7.63782 43.2114 7.66658 43.0114 7.72822 42.8226C8.0703 41.7737 8.59627 40.8253 9.32769 39.9844C10.0334 39.1706 10.6467 38.2966 11.0217 37.2839C11.1285 36.9955 11.1943 36.6931 11.2795 36.3977C11.0843 36.457 10.9775 36.5515 10.8676 36.6419C9.27735 37.9489 7.72513 39.3062 6.08457 40.549C4.2365 41.9495 2.68222 43.5801 1.50291 45.5502C0.958451 46.4594 0.572194 47.434 0.331811 48.4668C0.942014 47.5786 1.66419 46.8221 2.65551 46.3369C2.98527 46.1751 3.29962 45.9772 3.60061 45.7672C4.00844 45.4839 4.39675 45.1735 4.79431 44.8751C4.68131 45.2709 4.52824 45.6426 4.30841 45.9722C3.63348 46.9789 2.94521 47.9775 2.23844 48.9641C1.42792 50.0963 0.757104 51.2989 0.350302 52.623C0.176692 53.1897 0.114028 53.7885 0 54.3722C0.044173 54.3872 0.088346 54.4023 0.133546 54.4164C0.55473 53.4378 1.3406 52.7677 2.109 52.0745C2.77776 51.4697 3.39926 50.8147 4.04131 50.1817C4.1461 50.0782 4.25191 49.9748 4.35772 49.8723C4.39675 49.8934 4.43579 49.9145 4.47585 49.9356C4.39162 50.2129 4.35669 50.5193 4.21287 50.7634C3.62629 51.76 3.0428 52.7627 2.38945 53.7171C1.52859 54.975 0.923523 56.3262 0.641022 57.8071C0.502339 58.5335 0.462275 59.2769 0.368793 60.0797C0.908114 59.3784 1.3519 58.7424 1.85629 58.1567C2.57333 57.3239 3.32736 56.5211 3.75779 55.4944C3.77525 55.4542 3.81839 55.424 3.85024 55.3889C3.88722 55.3949 3.92523 55.4019 3.96221 55.408C3.91701 55.9917 3.95502 56.5955 3.80812 57.1531C3.49275 58.3526 3.0993 59.5341 2.70482 60.7116C2.35863 61.7444 2.11722 62.7852 2.27439 63.8763C2.3422 64.3485 2.448 64.8156 2.53738 65.2848C2.92363 64.0993 3.71978 62.5823 4.16151 62.3582C3.70334 65.3129 4.30224 69.8691 5.24015 70.8858C5.22063 70.3885 5.1405 69.8319 5.18981 69.2864C5.35007 67.5011 5.98903 65.8444 6.87968 64.3073C8.39697 61.6881 9.81667 59.0328 10.7371 56.1494C11.0545 55.1568 11.3227 54.1491 11.6124 53.1475C11.5764 53.1304 11.5404 53.1143 11.5055 53.0972C10.8296 54.4686 9.94816 55.6812 8.66509 56.7261C8.78529 56.3323 8.84281 56.0238 8.97122 55.7455C9.23729 55.1689 9.49411 54.5801 9.83927 54.0477C10.7217 52.6863 11.4593 51.2577 12.0849 49.7708C12.165 49.5799 12.238 49.386 12.3109 49.1921C12.3828 49.0022 12.4506 48.8104 12.5205 48.6195C11.8589 49.7598 10.9364 50.6408 9.88756 51.4094C9.32563 51.8213 8.76782 52.2383 8.22542 52.6411C8.23569 52.5718 8.23056 52.4372 8.27678 52.3227C8.60551 51.4918 8.84076 50.6037 9.30406 49.8512C9.93584 48.8264 10.7628 47.9182 11.4685 46.9346C11.9246 46.2987 12.315 45.6185 12.7352 44.9575C12.6992 44.9344 12.6633 44.9103 12.6273 44.8871C10.9364 46.375 8.65071 47.1848 7.45907 49.2745C7.42414 49.0113 7.43647 48.7842 7.48578 48.5662C7.75904 47.3656 8.37848 46.3429 9.13662 45.3724C9.9307 44.3557 10.6929 43.3108 11.4038 42.2368C11.7613 41.6973 11.975 41.0664 12.2544 40.4767C11.9092 40.6455 11.6216 40.8333 11.3709 41.0594C10.2759 42.047 8.66612 42.269 7.71075 43.4605C7.67274 43.4424 7.63371 43.4233 7.5957 43.4053H7.59364ZM40.3238 19.2361C40.6361 19.1326 40.7439 19.0141 40.7604 18.7137C40.8806 16.4381 40.2642 14.3384 39.2061 12.3371C38.9986 11.9453 38.7099 11.7202 38.2815 11.5655C33.9392 10.0032 30.1332 7.62922 26.9507 4.3279C26.7575 4.12797 26.5613 4.0496 26.322 4.14505C25.9573 4.28972 25.5474 4.40324 25.2618 4.64738C24.7091 5.12057 24.1503 5.62291 23.7353 6.20862C22.5714 7.85125 22.3269 9.73399 22.5036 11.67C22.5806 12.5119 22.8056 13.3447 23.0131 14.1696C23.1168 14.5805 23.4096 14.8738 23.8452 15.0366C24.326 15.2154 24.7841 15.4545 25.2546 15.6615C28.2584 16.9866 31.3453 18.0586 34.6213 18.5208C35.9989 18.7147 37.282 19.0854 38.3206 20.0448C38.3473 20.07 38.3894 20.081 38.3545 20.0629C39.0407 19.7676 39.6653 19.4521 40.3227 19.2341L40.3238 19.2361ZM42.2057 18.8593C42.2283 18.9789 42.3496 19.1226 42.4636 19.1758C43.0574 19.4521 43.6747 19.6842 44.2613 19.9735C44.475 20.079 44.6024 20.0911 44.776 19.9333C45.718 19.0774 46.8675 18.7056 48.1208 18.567C48.4886 18.5268 48.8512 18.4454 49.2149 18.3801C52.5628 17.7844 55.6877 16.5577 58.7727 15.1973C59.5811 14.8407 59.9807 14.3022 60.1698 13.5175C60.5046 12.1281 60.5848 10.7226 60.3855 9.31203C60.1317 7.5177 59.3859 5.95746 57.9087 4.81114C57.5348 4.52079 57.0694 4.3299 56.6215 4.15409C56.4726 4.09582 56.1767 4.16112 56.0637 4.27766C52.8278 7.62419 48.9673 10.0294 44.5562 11.6047C44.1904 11.7353 43.9583 11.9463 43.7754 12.2617C42.7533 14.0349 42.2972 15.9609 42.1246 17.8999C42.1503 18.2676 42.1492 18.568 42.2037 18.8593H42.2057ZM67.7901 17.2047C68.352 17.1323 68.9263 17.1394 69.4954 17.1253C69.932 17.1142 70.2412 16.7676 70.1652 16.3417C70.1405 16.202 70.0922 16.0664 70.0563 15.9277C69.4163 13.4452 69.2797 10.9536 70.3891 8.58264C70.8493 7.59807 70.7774 6.79334 70.4374 5.83891C69.7943 4.03554 69.0321 2.31857 67.6679 0.910032C67.5158 0.753304 67.3782 0.561413 67.298 0.361486C67.1727 0.0480307 66.956 -0.0162677 66.6468 0.000811539C65.4438 0.0661146 64.2368 0.0721426 63.0389 0.187679C61.8298 0.30422 60.631 0.517208 59.4301 0.701062C58.9925 0.768374 58.6689 1.0105 58.4039 1.36916C57.8697 2.09352 57.3006 2.79277 56.7479 3.50407C56.6904 3.57842 56.6472 3.66482 56.6154 3.71505C57.0068 3.89288 57.3889 4.01745 57.7176 4.22441C58.936 4.99399 59.7804 6.06998 60.2951 7.39111C60.893 8.92724 61.0019 10.5216 60.8005 12.1371C60.707 12.8856 60.5314 13.625 60.3947 14.3645C60.4389 14.3464 60.5149 14.3233 60.5827 14.2881C61.5699 13.7687 62.4565 13.1257 63.2208 12.316C63.7786 11.7262 64.019 11.7664 64.4124 12.4405C64.4319 12.4737 64.4638 12.5008 64.4823 12.535C64.8223 13.19 65.2507 13.8179 65.4787 14.5081C65.8064 15.4977 65.9872 16.5335 66.2286 17.5402C66.7084 17.4337 67.2436 17.275 67.7901 17.2047ZM24.6136 1.46862C24.3147 1.05169 23.9541 0.760337 23.4415 0.681973C22.3053 0.510176 21.1712 0.305224 20.0278 0.201744C18.7509 0.0862079 17.4648 0.0600867 16.1827 0.0178908C16.0358 0.0128675 15.8386 0.117352 15.741 0.233893C15.4236 0.613656 15.1287 1.01251 14.8503 1.4204C14.3593 2.13873 13.7881 2.82592 13.4296 3.60554C12.8985 4.75789 12.5174 5.97655 12.0931 7.17411C12.0459 7.30773 12.0921 7.50665 12.162 7.64228C12.9293 9.12315 13.3413 10.6874 13.3577 12.3481C13.3711 13.6652 13.1533 14.9522 12.8112 16.2221C12.6653 16.7636 12.9519 17.1132 13.519 17.1243C14.0213 17.1333 14.5288 17.1273 15.025 17.1946C15.6218 17.275 16.2094 17.4267 16.7066 17.5282C16.9645 16.4843 17.1514 15.4073 17.5079 14.3876C17.7863 13.5909 18.2619 12.8575 18.68 12.112C18.8228 11.8568 19.1002 11.8418 19.3395 12.0015C19.5337 12.1311 19.7083 12.2969 19.8717 12.4647C20.6524 13.2684 21.5585 13.8973 22.5498 14.3685C22.408 13.6029 22.2262 12.8505 22.1358 12.0869C21.919 10.2675 22.0618 8.47615 22.9083 6.81444C23.6356 5.38581 24.6752 4.23848 26.3446 3.7462C25.76 2.98064 25.1663 2.2382 24.6146 1.46862H24.6136ZM9.63176 74.3067C9.61327 74.9316 9.57115 75.5535 9.45302 76.1613C9.20236 77.4593 8.85617 78.7463 8.96917 80.0815C9.02567 80.7476 9.16641 81.4066 9.26708 82.0557C9.85674 80.5406 10.431 79.0638 11.0104 77.5718C11.0402 77.6371 11.0771 77.7014 11.0997 77.7708C11.3494 78.5253 11.2107 79.2888 11.1213 80.0443C10.9272 81.6859 10.8491 83.3235 11.1778 84.9581C11.3021 85.575 11.4901 86.1667 11.8568 86.7575C12.0048 85.5077 12.5143 84.0318 12.9129 83.6571C12.6951 86.5606 13.7789 90.5983 15.1554 91.9807C14.9151 90.5119 14.9212 89.0511 15.0784 87.5923C15.3167 85.3781 15.5509 83.1618 15.8406 80.9535C16.043 79.4114 15.9372 77.8943 15.6701 76.3733C15.0065 77.4834 14.3449 78.5906 13.7039 79.6615C13.6977 79.538 13.6566 79.3421 13.6823 79.1542C13.8056 78.245 13.8642 77.3177 14.0973 76.4346C14.5668 74.6533 14.9048 72.87 14.7435 71.0224C14.726 70.8275 14.7127 70.6326 14.6983 70.4377C13.7994 71.9276 12.3623 73.0177 11.7387 74.6573C11.6668 73.4166 12.0007 72.22 12.1054 71.0034C12.2113 69.7887 12.2185 68.566 12.2688 67.3464C12.2441 67.3464 12.2185 67.3474 12.1938 67.3484C11.5672 68.3591 10.9405 69.3698 10.3139 70.3805C10.6262 68.9619 10.395 67.5865 10.1577 66.2081C9.97898 66.5919 9.84338 66.9797 9.69854 67.3635C8.8274 69.6712 7.96038 71.9809 7.56385 74.4252C7.38511 75.5263 7.27108 76.6315 7.43133 77.6713C8.15865 76.5581 8.89623 75.4309 9.63279 74.3047L9.63176 74.3067ZM73.3754 74.3107C74.1151 75.443 74.8557 76.5752 75.6005 77.7135C75.9025 73.6135 74.2096 69.9464 72.8453 66.2031C72.6224 67.5915 72.3779 68.9719 72.6861 70.3835C72.0574 69.3627 71.4277 68.342 70.7836 67.2971C70.7836 68.1591 70.7271 69.0011 70.797 69.8329C70.8987 71.0445 71.0979 72.2471 71.2418 73.4557C71.29 73.8606 71.2983 74.2705 71.325 74.6784C70.6675 73.0167 69.2016 71.9337 68.3479 70.4377C68.3079 71.5097 68.2072 72.5777 68.3346 73.6175C68.4815 74.807 68.8338 75.9714 69.0927 77.1479C69.2817 78.0028 69.3721 78.8638 69.2971 79.6515C68.6612 78.5886 67.9986 77.4814 67.3196 76.3472C67.2354 77.0112 67.0649 77.6623 67.0905 78.3042C67.1553 79.9177 67.295 81.5292 67.4316 83.1397C67.6196 85.358 67.86 87.5723 68.0171 89.7926C68.0695 90.529 67.937 91.2775 67.8908 92.0008C69.4543 89.449 70.5042 86.7394 70.1169 83.647C70.6583 84.6105 71.0548 85.6011 71.1904 86.6952C71.3876 86.3024 71.5777 85.9146 71.6886 85.5077C72.1067 83.9595 72.1355 82.3862 71.965 80.8018C71.8889 80.0936 71.8068 79.3843 71.7821 78.674C71.7698 78.3083 71.8776 77.9395 71.9321 77.5718C71.9588 77.5819 71.9845 77.5909 72.0112 77.601C72.5844 79.0849 73.1587 80.5698 73.7134 82.0054C73.6815 82.0557 73.7103 82.0265 73.7196 81.9934C74.1007 80.5808 74.1531 79.1622 73.8654 77.7235C73.6394 76.5963 73.4638 75.46 73.2655 74.3268C73.3025 74.3218 73.3395 74.3167 73.3765 74.3117L73.3754 74.3107ZM27.793 26.11C25.5751 26.4355 23.4261 26.2145 21.3992 25.2641C20.8558 25.0089 20.4839 25.0903 20.0823 25.4308C19.9723 25.5243 19.8573 25.6127 19.7525 25.7111C17.9209 27.4231 17.6086 29.552 18.0144 31.8637C18.0452 32.0375 18.2527 32.2324 18.4283 32.3218C19.8676 33.0542 21.3941 33.4782 23.0223 33.5686C23.5514 33.5977 23.9952 33.5154 24.441 33.226C26.2552 32.0476 27.7992 30.5787 29.2343 28.9954C30.2903 27.83 31.0978 26.4928 31.8867 25.1385C30.578 25.7543 29.1798 25.906 27.791 26.11H27.793ZM51.0855 25.2761C51.3269 25.6629 51.5704 26.0487 51.8139 26.4335C53.5561 29.1843 55.8336 31.4277 58.5518 33.2572C58.9298 33.5113 59.3171 33.6018 59.7794 33.5777C61.3912 33.4953 62.9064 33.0954 64.36 32.4143C64.772 32.2214 64.9558 31.9581 65.0144 31.5372C65.1942 30.2542 65.0832 28.9994 64.6343 27.7848C64.2357 26.7058 63.5156 25.8568 62.5397 25.2168C62.2788 25.0461 62.0415 25.04 61.7312 25.1757C61.082 25.458 60.4101 25.7091 59.726 25.897C57.956 26.3843 56.1665 26.3009 54.3708 26.0065C53.2356 25.8206 52.1066 25.6288 50.989 25.0531C51.0527 25.2038 51.0629 25.242 51.0835 25.2751L51.0855 25.2761ZM41.991 34.4768C43.7713 34.2779 45.2691 33.4742 46.5676 32.3228C47.2795 31.6909 47.8558 30.9143 48.5574 30.2703C48.9015 29.9548 49.0022 29.6263 48.9252 29.2395C48.8286 28.7482 48.7084 28.2489 48.504 27.7948C48.277 27.2895 47.8773 26.8876 47.3267 26.6967C46.885 26.544 46.4474 26.538 46.0827 26.9137C45.342 27.6793 44.4288 28.1987 43.4703 28.6528C42.2191 29.2455 40.9545 29.3038 39.6786 28.7422C38.6955 28.3102 37.77 27.7908 36.9923 27.0413C36.3955 26.4666 35.6969 26.4717 35.06 27.0152C34.3553 27.618 34.0913 28.4127 34.0019 29.2877C33.9618 29.6836 34.0276 30.0262 34.4005 30.2703C34.5381 30.3607 34.6337 30.5164 34.7374 30.6501C35.4586 31.5733 36.3122 32.36 37.2789 33.0341C38.5384 33.9122 39.9211 34.4457 41.5226 34.522C41.6469 34.51 41.8185 34.4969 41.99 34.4778L41.991 34.4768ZM20.0987 24.5065C18.341 23.1854 17.2049 21.5086 16.9799 19.3064C16.9686 19.1949 16.8957 19.0392 16.8042 18.993C15.7287 18.4454 14.612 18.2304 13.445 18.6956C13.3043 18.7518 13.1553 18.8985 13.1019 19.0372C12.5451 20.4748 11.7305 21.7447 10.6272 22.8428C10.5214 22.9483 10.4546 23.1724 10.4875 23.316C10.7782 24.603 11.2569 25.8166 12.0171 26.9157C13.4224 28.9452 15.2202 30.5586 17.3846 31.7873C17.4247 31.8094 17.4781 31.8094 17.5675 31.8295C17.3405 30.4602 17.4339 29.1421 17.8633 27.8531C18.3082 26.5149 19.1947 25.5213 20.4398 24.7587C20.3083 24.6613 20.2035 24.5849 20.0987 24.5065ZM65.5712 31.7803C67.0083 30.8751 68.4096 29.9398 69.5416 28.6478C70.8719 27.1307 71.9598 25.5102 72.4159 23.531C72.493 23.1965 72.4766 22.9664 72.2074 22.7062C71.1544 21.6915 70.4025 20.4768 69.8878 19.1266C69.7748 18.8292 69.5724 18.7006 69.2971 18.6142C68.2216 18.2746 67.2025 18.4675 66.2256 18.9478C66.0951 19.012 65.9759 19.215 65.9595 19.3657C65.8054 20.729 65.3175 21.9627 64.4083 23.0026C63.8454 23.6456 63.192 24.2132 62.5859 24.8079C65.225 26.4405 65.7047 28.9783 65.3986 31.8406C65.4767 31.8145 65.5301 31.8064 65.5712 31.7803ZM41.84 27.9827C41.9315 27.9726 42.0219 27.9525 42.1133 27.9375C43.3583 27.7305 44.3867 27.1257 45.2794 26.2788C45.6779 25.901 46.0981 25.5876 46.7001 25.6067C46.7853 25.6097 46.9415 25.456 46.9528 25.3615C47.0422 24.6542 46.6477 24.1921 46.0889 23.8244C45.7992 23.6345 45.528 23.5722 45.2331 23.8384C45.0605 23.9942 44.8448 24.1087 44.6373 24.2222C43.2525 24.9797 41.8164 25.4851 40.2025 25.024C39.2811 24.7607 38.4295 24.3528 37.6436 23.8093C37.5255 23.7279 37.3529 23.6415 37.2255 23.6646C36.568 23.7812 35.9465 24.5779 35.9609 25.2329C35.966 25.4901 36.038 25.6006 36.3441 25.6378C36.68 25.678 37.0272 25.8186 37.3138 25.9995C37.6549 26.2145 37.9251 26.533 38.2466 26.7801C39.1948 27.5115 40.2642 27.9525 41.4723 28.0078C41.6027 27.9988 41.7219 27.9947 41.84 27.9817V27.9827ZM20.3781 17.5553C20.3915 17.6578 20.4079 17.7602 20.4346 17.8607C20.7798 19.1366 21.4722 20.2046 22.6135 20.9078C24.9207 22.3294 27.342 22.8117 29.9051 21.5297C30.3427 21.3107 30.7259 21.0334 31.0135 20.5311C27.3575 19.7836 23.7507 19.0432 20.4007 17.4478C20.3915 17.485 20.372 17.5221 20.3771 17.5553H20.3781ZM58.1532 21.9236C61.0255 21.0807 62.4318 19.0603 62.5304 17.4458C59.1887 19.0482 55.5768 19.7776 51.9197 20.5321C52.9264 22.0682 55.7422 22.6298 58.1532 21.9226V21.9236ZM44.5202 22.9533C44.9876 22.7333 45.1129 22.45 44.8818 21.8532C44.6753 21.3178 44.4082 21.2203 43.8463 21.3298C42.2694 21.6372 40.6884 21.6312 39.1116 21.3368C38.5281 21.2273 38.1788 21.4082 37.999 21.9738C37.8552 22.4289 37.9641 22.7142 38.3997 22.9353C39.3509 23.4195 40.3649 23.6958 41.464 23.7731C42.5221 23.7088 43.5412 23.4145 44.5181 22.9533H44.5202ZM26.5397 72.1768C26.6753 72.5385 26.8993 72.8328 27.2753 73.0026C28.5594 73.5833 29.8322 74.1881 31.1245 74.7477C31.7573 75.022 31.7737 74.9868 32.1045 74.384C32.1292 74.3388 32.1487 74.2896 32.1764 74.2464C32.4887 73.7752 32.802 73.305 33.1626 72.7615C33.2304 72.9966 33.2633 73.1202 33.3013 73.2428C33.555 74.0575 33.9187 74.8241 34.5464 75.4239C34.7878 75.6539 35.1288 75.8679 35.4524 75.9172C37.0858 76.1653 38.7233 76.3984 40.3864 76.1472C40.6545 76.107 40.8282 76.0438 40.937 75.8036C41.1004 75.446 41.2761 75.0933 41.4712 74.6875C41.6818 75.1265 41.8472 75.5063 42.0486 75.8659C42.1133 75.9815 42.2725 76.1131 42.3948 76.1201C43.6593 76.1954 44.926 76.3683 46.1906 76.103C46.5388 76.0297 46.8973 75.9604 47.2507 75.9563C47.7767 75.9503 48.1568 75.7152 48.4824 75.3485C49.0484 74.7116 49.4224 73.9751 49.6586 73.1684C49.6884 73.0669 49.7285 72.9675 49.7778 72.8248C49.8877 72.9594 49.9699 73.0428 50.0315 73.1403C50.3551 73.6446 50.6726 74.152 50.9931 74.6583C51.1081 74.8402 51.215 75.0059 51.4913 74.8824C52.8011 74.2956 54.116 73.718 55.4299 73.1413C55.999 72.8911 56.3349 72.4551 56.5311 71.8885C56.8907 70.8527 57.2636 69.8229 57.6344 68.78C58.3011 69.1799 58.5477 69.9384 58.935 70.6467C60.63 69.0593 61.8422 67.2419 62.439 65.0568C62.4863 64.8829 62.4431 64.668 62.3877 64.4881C62.0137 63.2775 61.3881 62.1935 60.4779 61.3033C59.9468 60.7829 59.2976 60.379 58.7038 59.9249C58.7038 60.7588 58.7213 61.5073 58.6997 62.2537C58.6658 63.4403 58.4891 64.6016 57.9467 65.6827C57.6324 66.3096 57.1732 66.3246 56.676 65.8374C55.9137 65.0889 55.0847 64.4057 54.2249 63.6422C54.0133 63.9084 53.8294 64.0772 53.7215 64.2852C53.3384 65.0236 53.0312 65.8032 52.6028 66.5135C52.0132 67.4921 51.3547 68.4324 50.6921 69.3668C50.5185 69.6119 50.2236 69.7736 50.0377 69.9294C49.5549 69.2914 49.143 68.7248 48.7002 68.1833C48.6211 68.0858 48.3725 68.0135 48.2657 68.0617C46.774 68.7388 45.189 69.0875 43.5905 69.4009C43.4374 69.4311 43.2875 69.5386 43.1652 69.642C42.5571 70.1574 41.9582 70.6829 41.4599 71.1149C40.9956 70.712 40.4337 70.2036 39.8461 69.7254C39.6458 69.5627 39.3941 69.415 39.1434 69.3637C37.6898 69.0674 36.2403 68.7569 34.8874 68.1401C34.5433 67.9833 34.3183 68.0105 34.1108 68.2908C33.7184 68.8222 33.3352 69.3597 32.8822 69.9836C32.5709 69.6631 32.199 69.3547 31.9196 68.981C30.844 67.5453 29.9544 66.0032 29.2415 64.3635C29.1367 64.1234 28.9312 63.9255 28.7494 63.6763C28.1947 64.1224 27.717 64.4911 27.2578 64.8799C26.9281 65.1592 26.6003 65.4466 26.3096 65.764C25.7426 66.3829 25.2906 66.3367 24.9413 65.5842C24.2479 64.0893 24.1636 62.5079 24.2612 60.9025C24.2797 60.6021 24.3064 60.3027 24.3311 59.9762C24.2294 60.0073 24.1893 60.0123 24.1565 60.0304C22.4501 60.9658 21.3427 62.3834 20.6483 64.1485C20.4552 64.6388 20.4593 65.0899 20.6319 65.5792C21.2606 67.3605 22.2509 68.9177 23.6017 70.2579C23.7281 70.3835 23.8637 70.5 24.0137 70.6377C24.3794 69.9233 24.6331 69.1829 25.2865 68.7921C25.7107 69.9404 26.1186 71.0586 26.5367 72.1738L26.5397 72.1768ZM54.1633 56.1454C55.7083 54.9981 56.5394 53.3896 57.1177 51.6415C57.2975 51.099 57.3232 50.5072 57.4064 49.9356C57.4444 49.6774 57.3047 49.5307 57.0489 49.4634C55.7216 49.1117 54.3954 48.7571 53.0713 48.3954C52.8514 48.3351 52.7631 48.4296 52.6778 48.6024C52.5206 48.9239 52.2792 49.159 51.9002 49.2534C51.8652 49.1389 51.8396 49.0525 51.8118 48.9671C51.5694 48.2166 51.329 48.0317 50.537 47.9775C50.4055 47.9684 50.274 47.9443 50.1425 47.9343C49.1943 47.8579 48.2461 47.7836 47.3103 47.7082C47.1264 48.1081 47.2312 48.6024 46.7463 48.7832C46.5706 48.5381 46.3785 48.3341 46.2625 48.094C46.0837 47.7273 45.7992 47.7012 45.4468 47.7414C44.513 47.8469 43.572 47.9001 42.6454 48.0458C41.7948 48.1794 40.9679 48.1362 40.1224 48.0147C39.1804 47.879 38.2261 47.8258 37.2779 47.7313C37.0457 47.7082 36.8916 47.7625 36.7653 47.9815C36.6009 48.2668 36.38 48.522 36.0955 48.9088C35.9126 48.4728 35.7637 48.1201 35.6044 47.7404C35.5582 47.7404 35.4791 47.7354 35.401 47.7404C34.2525 47.8167 33.103 47.8851 31.9566 47.9835C31.7984 47.9976 31.6042 48.1302 31.5149 48.2638C31.3104 48.5702 31.1604 48.9108 30.9396 49.3308C30.6982 49.0716 30.4814 48.8254 30.2492 48.5933C30.1619 48.5069 30.0191 48.3753 29.938 48.3964C28.5573 48.7521 27.1797 49.1218 25.8083 49.5096C25.6953 49.5417 25.5762 49.7105 25.5484 49.8341C25.5001 50.0451 25.4765 50.2802 25.5217 50.4891C25.9439 52.4814 26.7565 54.2898 28.2728 55.7265C28.6888 56.1213 29.2035 56.4156 29.6729 56.7552C29.7058 56.7261 29.7387 56.697 29.7716 56.6678C29.7716 56.5312 29.7746 56.3946 29.7716 56.2579C29.7315 54.8313 29.9072 53.4439 30.4814 52.1147C30.5882 51.8675 30.579 51.5722 30.6211 51.2979C30.6673 50.9985 30.7105 50.6981 30.7547 50.3977C30.8029 50.3997 30.8512 50.4007 30.8995 50.4027C31.031 50.667 31.1327 50.9513 31.3001 51.1924C31.6844 51.745 32.0881 52.2865 32.5123 52.8089C32.6736 53.0068 32.9027 53.046 33.1883 52.9375C33.516 52.8129 33.8807 52.7717 34.2341 52.7235C34.8073 52.6451 35.3836 52.5899 35.9455 52.5256C36.1335 51.7962 36.076 51.0327 36.5311 50.4138C36.9902 50.9885 37.4155 51.532 37.8542 52.0655C38.0607 52.3166 38.3329 52.392 38.6709 52.3417C39.0756 52.2815 39.4927 52.2292 39.8964 52.2624C40.482 52.3106 40.7727 52.0142 40.9843 51.5521C41.1271 51.2396 41.2832 50.9322 41.4702 50.5474C41.6705 50.9603 41.8308 51.2959 41.9962 51.6294C42.2006 52.0434 42.4759 52.3196 43.0111 52.2584C43.3224 52.2222 43.6593 52.2282 43.9583 52.3086C44.665 52.4995 45.0903 52.1679 45.4581 51.6535C45.757 51.2356 46.0704 50.8287 46.4155 50.3646C46.5162 50.5836 46.6169 50.7393 46.658 50.9081C46.7648 51.3481 46.8655 51.7912 46.9292 52.2393C46.9631 52.4834 47.0586 52.5447 47.301 52.5738C48.1403 52.6763 48.9734 52.824 49.8117 52.9335C49.9853 52.9566 50.2442 52.9576 50.3397 52.8561C50.7486 52.4231 51.1369 51.965 51.48 51.4807C51.7153 51.1482 51.8652 50.7574 52.0532 50.3927C52.1015 50.3927 52.1498 50.3947 52.197 50.3957C52.2371 50.7031 52.2741 51.0106 52.3183 51.317C52.3563 51.5782 52.382 51.8424 52.4477 52.0976C52.6532 52.8973 52.9316 53.684 53.0713 54.4947C53.1935 55.203 53.1658 55.9354 53.2099 56.7633C53.5582 56.5372 53.8736 56.3554 54.1633 56.1404V56.1454Z" fill="#838382"/>
</svg>
